<?xml version="1.0" encoding="iso-8859-1"?>
<!-- Generator: Adobe Illustrator 19.0.0, SVG Export Plug-In . SVG Version: 6.00 Build 0)  -->
<svg version="1.1" id="Layer_1" xmlns="http://www.w3.org/2000/svg" xmlns:xlink="http://www.w3.org/1999/xlink" x="0px" y="0px"
	 viewBox="0 0 489.8 489.8" style="enable-background:new 0 0 489.8 489.8;" xml:space="preserve">
<g>
	<g>
		<path style="fill:#2C2F33;" d="M30,298.142h6.8c9.6,26.8,26.4,51.3,48.8,71.3c17.6,16.2,22,37.8,22.1,40.9v16.4
			c0,11.5,9.3,20.8,20.8,20.8h66.4c11.5,0,20.8-9.3,20.8-20.8v-4.9c11,0.6,21.9,0.5,32.8-0.4v5.4c0,11.5,9.3,20.8,20.8,20.8h20.9
			c5.5,0,9.9-4.4,9.9-9.9s-4.4-9.9-9.9-9.9h-20.9c-0.5,0-1-0.4-1-1v-16.4c0-2.9-1.2-5.6-3.4-7.5c-2.2-1.9-5-2.7-7.8-2.4
			c-16.5,2.2-33.5,2.5-50.2,0.7c-2.8-0.3-5.6,0.6-7.7,2.5c-2.1,1.9-3.3,4.6-3.3,7.4v15.6c0,0.5-0.4,1-1,1h-66.4c-0.5,0-1-0.4-1-1
			v-16.6c-0.1-6.3-5.4-34-28.6-55.3c-21.8-19.4-37.5-43.4-45.5-69.4c-1.3-4.2-5.1-7-9.5-7H30c-5.6,0-10.2-4.6-10.2-10.2v-49.6
			c0-5.6,4.6-10.2,10.2-10.2h14.6c4.3,0,8.2-2.7,9.6-6.8c9-27.6,26.7-52.6,51.1-72.3c2.2-1.8,3.6-4.5,3.7-7.4c0-0.2,0-0.4,0.1-0.6
			c5.1-18,1.6-37.4-10.1-56.1c-0.5-0.8-0.5-1.5,0-2.3c0.5-0.7,1.2-1.1,2.1-1c30.6,3.8,46.6,18.8,54.6,30.6c2.5,3.6,7,5.2,11.2,3.9
			c19.9-6.3,40.8-9.5,62.2-9.5c78.8,0,148.2,43.7,172.7,108.6c1.9,5.1,3.6,10.4,4.9,15.7c0.8,3.4,1.5,6.8,2.1,10.2
			c0.9,5.4,6,9,11.4,8.1s9-6,8.1-11.4c-0.7-3.9-1.5-7.8-2.4-11.6c-1.5-6-3.4-12-5.6-17.9c-27.6-72.6-104.4-121.4-191.4-121.4
			c-21,0-41.6,2.8-61.3,8.4c-11.3-14-31-29.1-64.1-33.3c-8.5-1.1-16.6,2.8-21.2,10c-4.6,7.2-4.6,16.2-0.1,23.4
			c8.8,14,11.4,27.5,7.8,40.2c0,0.1-0.1,0.3-0.1,0.4c-23.9,20.1-41.7,44.9-52.1,72.3H30c-16.5,0-30,13.5-30,30v49.6
			C0,284.742,13.5,298.142,30,298.142z"/>
		<path style="fill:#3C92CA;" d="M405.7,248.042c-31.4,0-56.9,25.5-56.9,56.9v27h-17.3c-5.5,0-9.9,4.4-9.9,9.9v95.8
			c0,5.5,4.4,9.9,9.9,9.9h148.4c5.5,0,9.9-4.4,9.9-9.9v-95.8c0-5.5-4.4-9.9-9.9-9.9h-17.3v-27
			C462.5,273.642,437,248.042,405.7,248.042z M368.6,304.942c0-20.5,16.6-37.1,37.1-37.1s37.1,16.6,37.1,37.1v27h-74.2
			L368.6,304.942L368.6,304.942z M470,351.742v76H341.3v-76H470z"/>
	</g>
</g>
<g>
</g>
<g>
</g>
<g>
</g>
<g>
</g>
<g>
</g>
<g>
</g>
<g>
</g>
<g>
</g>
<g>
</g>
<g>
</g>
<g>
</g>
<g>
</g>
<g>
</g>
<g>
</g>
<g>
</g>
</svg>
